<svg height="496pt" viewBox="-136 0 496 496" width="496pt" xmlns="http://www.w3.org/2000/svg"><path d="m168 24v16h-112v-16c0-8.800781 7.199219-16 16-16h80c8.800781 0 16 7.199219 16 16zm0 0" fill="#fcd770"/><path d="m168 40c8.800781 0 16 7.199219 16 16v16c0 8.800781-7.199219 16-16 16h-112c-8.800781 0-16-7.199219-16-16v-16c0-8.800781 7.199219-16 16-16zm0 0" fill="#ff826e"/><path d="m216 166.160156v88.878906c0 22.640626-18.320312 40.960938-40.960938 40.960938h-126.078124c-22.640626 0-40.960938-18.320312-40.960938-40.960938v-88.878906c0-13.359375 8.238281-25.28125 20.800781-29.921875l43.199219-16.238281v-32h80v32l43.199219 16.238281c12.5625 4.640625 20.800781 16.5625 20.800781 29.921875zm0 0" fill="#fcd770"/><path d="m216 440v16c0 17.679688-14.320312 32-32 32h-144c-17.679688 0-32-14.320312-32-32v-16zm0 0" fill="#fcd770"/><path d="m8 344h208v48h-208zm0 0" fill="#e6e9ed"/><path d="m8 392h208v48h-208zm0 0" fill="#e6e9ed"/><path d="m216 336.960938v7.039062h-208v-7.039062c0-10.882813 4.320312-21.28125 12-28.960938s18.078125-12 28.960938-12h126.078124c10.882813 0 21.28125 4.320312 28.960938 12s12 18.078125 12 28.960938zm0 0" fill="#fcd770"/><path d="m144 176-40 88h-8l8-56h-32l24-64h32l-8 32zm0 0" fill="#ff826e"/><path d="m224 255.03125v-88.855469c0-16.582031-10.433594-31.632812-25.960938-37.457031l-38.039062-14.261719v-18.457031h8c13.230469 0 24-10.769531 24-24v-16c0-10.414062-6.710938-19.214844-16-22.527344v-9.472656c0-13.230469-10.769531-24-24-24h-80c-13.230469 0-24 10.769531-24 24v9.472656c-9.289062 3.3125-16 12.113282-16 22.527344v16c0 13.230469 10.769531 24 24 24h8v18.457031l-38.039062 14.261719c-15.527344 5.824219-25.960938 20.875-25.960938 37.457031v88.855469c0 17.121094 8.847656 32.191406 22.191406 40.945312-2.792968 1.832032-5.421875 3.953126-7.847656 6.367188-9.246094 9.25-14.34375 21.542969-14.34375 34.625v119.03125c0 22.054688 17.945312 40 40 40h144c22.054688 0 40-17.945312 40-40v-119.03125c0-13.082031-5.097656-25.375-14.34375-34.625-2.417969-2.414062-5.046875-4.535156-7.847656-6.367188 13.34375-8.761718 22.191406-23.824218 22.191406-40.945312zm-152-239.03125h80c4.40625 0 8 3.59375 8 8v8h-96v-8c0-4.40625 3.59375-8 8-8zm-24 56v-16c0-4.40625 3.59375-8 8-8h112c4.40625 0 8 3.59375 8 8v16c0 4.40625-3.59375 8-8 8h-112c-4.40625 0-8-3.59375-8-8zm-32 312v-32h192v32zm192 16v32h-192v-32zm-24 80h-144c-13.230469 0-24-10.769531-24-24v-8h192v8c0 13.230469-10.769531 24-24 24zm14.34375-166.34375c5.992188 5.992188 9.320312 13.902344 9.558594 22.34375h-191.804688c.246094-8.441406 3.566406-16.351562 9.558594-22.34375 6.222656-6.222656 14.511719-9.65625 23.3125-9.65625h126.0625c8.800781 0 17.089844 3.433594 23.3125 9.65625zm9.65625-58.625c0 18.175781-14.792969 32.96875-32.96875 32.96875h-126.0625c-18.175781 0-32.96875-14.792969-32.96875-32.96875v-88.855469c0-9.953125 6.257812-18.976562 15.574219-22.472656l48.425781-18.160156v-29.542969h64v29.542969l48.425781 18.167969c9.316407 3.488281 15.574219 12.511718 15.574219 22.464843zm0 0"/><path d="m138.246094 136h-47.789063l-30 80h34.320313l-8 56h22.375l47.273437-104h-26.179687zm-6.671875 48-23.429688 51.542969 5.078125-35.542969h-29.679687l18-48h16.210937l-8 32zm0 0"/></svg>