<?xml version="1.0"?>
<svg xmlns="http://www.w3.org/2000/svg" height="512px" viewBox="0 0 64 64" width="512px" class=""><g><path d="m28 61h-16l-2-22h20z" fill="#87cee9" data-original="#87CEE9"/><path d="m10.364 43 1.636 18h16l1.636-18z" fill="#ffd782" data-original="#FFD782"/><path d="m40 3h8v6h-8z" fill="#394d5c" data-original="#394D5C" class="active-path" data-old_color="#394d5c" style="fill:#84A0B6"/><path d="m48 20v-11h-8v11l-6 7v34h20v-34z" fill="#d3843d" data-original="#D3843D" class=""/><path d="m40 12h5v2h-5z" fill="#aa6329" data-original="#AA6329"/><path d="m40 16h3v2h-3z" fill="#aa6329" data-original="#AA6329"/><path d="m34 31h14v22h-14z" fill="#394d5c" data-original="#394D5C" class="active-path" data-old_color="#394d5c" style="fill:#84A0B6"/><g fill="#aa6329"><path d="m34 56h12v2h-12z" data-original="#000000"/><path d="m48 56h2v2h-2z" data-original="#000000"/><path d="m43 26h11v2h-11z" data-original="#000000"/><path d="m34 26h5v2h-5z" data-original="#000000"/></g><path d="m11.636 57 .364 4h16l.364-4z" fill="#87cee9" data-original="#87CEE9"/><path d="m15 51h4v4h-4z" fill="#aabece" data-original="#AABECE"/><path d="m20.879 46.879h4.243v4.243h-4.243z" fill="#aabece" transform="matrix(.707 -.707 .707 .707 -27.912 30.615)" data-original="#AABECE"/><path d="m38 35h6v6h-6z" fill="#ffd782" data-original="#FFD782"/><path d="m38 44h6v2h-6z" fill="#f4f4e6" data-original="#F4F4E6" class="" style="fill:#F4F4E6"/><path d="m37 48h8v2h-8z" fill="#f4f4e6" data-original="#F4F4E6" class="" style="fill:#F4F4E6"/></g> </svg>
