<svg height="512" viewBox="0 0 512 512" width="512" xmlns="http://www.w3.org/2000/svg"><path d="m360 496v-104l45.9 78.692a34.885 34.885 0 0 0 30.137 17.308 34.885 34.885 0 0 0 32.288-48.094l-52.325-127.906-98-24-14-16v-64h-96v64l-13.819 16-98.181 24-64 128 56 24 64-72v104" fill="#fec9a3"/><path d="m304 245.558v-37.558h-96v37.558a71.687 71.687 0 0 0 96 0z" fill="#feb784"/><path d="m470.96 453.14a34.911 34.911 0 0 1 -65.06 17.55l-45.9-78.69v104h-208v-104l-64 72-56-24 64-128 56-13.71 42.18-10.29 13.82-16 32.88 38.36 15.12 17.64 15.11-17.63 32.89-38.37 14 16 42 10.29 56 13.71 52.33 127.91a34.783 34.783 0 0 1 2.63 13.23z" fill="#c7c7c5"/><path d="m240.88 310.36-32.88 33.64-13.82-56 13.82-16z" fill="#e0e0de"/><path d="m318 288-14 56-32.89-33.63 32.89-38.37z" fill="#e0e0de"/><path d="m328 112h8a24 24 0 0 1 24 24 24 24 0 0 1 -24 24h-8a0 0 0 0 1 0 0v-48a0 0 0 0 1 0 0z" fill="#feb784"/><path d="m184 112h-8a24.071 24.071 0 0 0 -24 24 24.071 24.071 0 0 0 24 24h8.48" fill="#feb784"/><path d="m328 101.59v56a72 72 0 1 1 -144 0v-56a72 72 0 0 1 144 0z" fill="#fec9a3"/><path d="m328 101.59v56a71.991 71.991 0 0 1 -38.15 63.56 71.739 71.739 0 0 0 6.15-29.15v-88a72.032 72.032 0 0 0 -61.29-71.21 72.024 72.024 0 0 1 93.29 68.8z" fill="#fec093"/><g fill="#7a432a"><circle cx="220" cy="121.588" r="12"/><circle cx="292" cy="121.588" r="12"/><path d="m328 77.59v34.41c-11.76-14.12-21.53-32.76-29.08-50.41h-.01c-2.32.87-4.67 1.66-7.03 2.37a122.5 122.5 0 0 1 -35.88 5.37 122.749 122.749 0 0 1 -42.91-7.74c-7.56 17.65-17.33 36.29-29.09 50.41v-34.41a54.761 54.761 0 0 1 6.7-26.59 43.1 43.1 0 0 1 17.3-17.39 124.6 124.6 0 0 1 48-9.61c.34 0 .69 0 1.03.01a124.457 124.457 0 0 1 46.97 9.6c14.12 7.41 24 24.3 24 43.98z"/><path d="m328 120v56a72 72 0 0 1 -144 0v-48l32 40a54.641 54.641 0 0 1 38.63-16h2.74a54.636 54.636 0 0 1 38.63 16z"/></g><path d="m328 120v56a72.05 72.05 0 0 1 -56.83 70.4 71.842 71.842 0 0 0 24.83-54.4v-24z" fill="#743b20"/><path d="m246.891 192h-14.891v-16h14.891c10.951 0 21.55-2.519 29.078-6.91l8.062 13.82c-10.048 5.862-23.238 9.09-37.14 9.09z" fill="#fec9a3"/><path d="m248 328h16v128h-16z" fill="#b0b0ae"/><path d="m488 308.84v17.27a465.025 465.025 0 0 1 -7.49 83.1l-8.51 46.79h-64l-8.51-46.79a465.025 465.025 0 0 1 -7.49-83.1v-17.27c0-1.63.07-3.24.22-4.84a53.885 53.885 0 0 1 23.78-40v-24h48v24a53.885 53.885 0 0 1 23.78 40c.15 1.6.22 3.21.22 4.84z" fill="#e0e0de"/><path d="m488 308.84v17.27a465.025 465.025 0 0 1 -7.49 83.1l-8.51 46.79h-36.33c15.08-55.61 23.44-132.58-4.65-216h32.98v24a53.885 53.885 0 0 1 23.78 40c.15 1.6.22 3.21.22 4.84z" fill="#d6d6d4"/><path d="m488 308.84v11.16h-96v-11.16c0-1.63.07-3.24.22-4.84h95.56c.15 1.6.22 3.21.22 4.84z" fill="#b0b0ae"/><path d="m416.946 352.574c-.413-5.731-.729-11.2-.939-16.241l15.986-.666c.2 4.885.51 10.187.912 15.759z" fill="#ebebe9"/><path d="m426.836 425.431-3.731-20.515c-1.794-9.874-3.45-22.372-4.788-36.143l15.925-1.546c1.3 13.338 2.888 25.381 4.606 34.827l3.73 20.515z" fill="#ebebe9"/><path d="m488 398.01v53.45a36.545 36.545 0 0 1 -60.2 27.85l-.66-.56-36.89-31.35a16.027 16.027 0 0 1 -4.49-19.98l17.62-34.42a16.865 16.865 0 0 1 25.9-4.94l30.03 25.82 4.8-18.75a12.183 12.183 0 0 1 16.78-7.91 12.061 12.061 0 0 1 5.18 4.37 11.7 11.7 0 0 1 1.93 6.42z" fill="#fec9a3"/><path d="m62.389 488a33.61 33.61 0 0 1 -33.315-38.053l10.926-81.947h56v86.389a33.611 33.611 0 0 1 -33.611 33.611z" fill="#e0e0de"/><path d="m128 320h-64l16-48-16-48h64l-16 48z" fill="#e0e0de"/><path d="m112 320v48a16 16 0 0 1 -16 16h-46.4a9.6 9.6 0 0 1 -9.6-9.6v-60.8a9.6 9.6 0 0 1 9.6-9.6h46.4a16 16 0 0 1 16 16z" fill="#fec9a3"/><path d="m112 320v48a16 16 0 0 1 -16 16h-24a16 16 0 0 0 16-16v-48a16 16 0 0 0 -16-16h24a16 16 0 0 1 16 16z" fill="#fec093"/><path d="m360 298.29v197.71h-208v-197.71l42.181-10.29 61.819 168 62-168z" fill="#3d4d63"/><path d="m248 448h16v48h-16z" fill="#29384a"/><path d="m304 392h64v32h-64z" fill="#ffb531"/><path d="m304 408h64v16h-64z" fill="#ffa912"/><path d="m216 464h16v16h-16z" fill="#29384a"/><path d="m328 77.59v34.41c-11.76-14.12-21.53-32.76-29.08-50.41h-.01c-2.32.87-4.67 1.66-7.03 2.37a72.2 72.2 0 0 0 -34.85-39.95 124.457 124.457 0 0 1 46.97 9.6c14.12 7.41 24 24.3 24 43.98z" fill="#743b20"/><path d="m488 413.56v37.9a36.545 36.545 0 0 1 -60.2 27.85l-.66-.56a369.7 369.7 0 0 0 60.86-65.19z" fill="#fec093"/></svg>